<?xml version="1.0" standalone="no"?><svg xmlns="http://www.w3.org/2000/svg" viewBox="0 0 1440 320"><path fill="#A703AD" fill-opacity="1" d="M0,128L16,122.7C32,117,64,107,96,117.3C128,128,160,160,192,186.7C224,213,256,235,288,218.7C320,203,352,149,384,138.7C416,128,448,160,480,192C512,224,544,256,576,261.3C608,267,640,245,672,229.3C704,213,736,203,768,213.3C800,224,832,256,864,266.7C896,277,928,267,960,240C992,213,1024,171,1056,128C1088,85,1120,43,1152,58.7C1184,75,1216,149,1248,192C1280,235,1312,245,1344,256C1376,267,1408,277,1424,282.7L1440,288L1440,0L1424,0C1408,0,1376,0,1344,0C1312,0,1280,0,1248,0C1216,0,1184,0,1152,0C1120,0,1088,0,1056,0C1024,0,992,0,960,0C928,0,896,0,864,0C832,0,800,0,768,0C736,0,704,0,672,0C640,0,608,0,576,0C544,0,512,0,480,0C448,0,416,0,384,0C352,0,320,0,288,0C256,0,224,0,192,0C160,0,128,0,96,0C64,0,32,0,16,0L0,0Z"></path></svg>