<?xml version="1.0" standalone="no"?><svg xmlns="http://www.w3.org/2000/svg" viewBox="0 0 1440 320"><path fill="#A703AD" fill-opacity="1" d="M0,160L16,144C32,128,64,96,96,122.7C128,149,160,235,192,240C224,245,256,171,288,144C320,117,352,139,384,144C416,149,448,139,480,160C512,181,544,235,576,256C608,277,640,267,672,250.7C704,235,736,213,768,202.7C800,192,832,192,864,197.3C896,203,928,213,960,186.7C992,160,1024,96,1056,85.3C1088,75,1120,117,1152,160C1184,203,1216,245,1248,229.3C1280,213,1312,139,1344,112C1376,85,1408,107,1424,117.3L1440,128L1440,0L1424,0C1408,0,1376,0,1344,0C1312,0,1280,0,1248,0C1216,0,1184,0,1152,0C1120,0,1088,0,1056,0C1024,0,992,0,960,0C928,0,896,0,864,0C832,0,800,0,768,0C736,0,704,0,672,0C640,0,608,0,576,0C544,0,512,0,480,0C448,0,416,0,384,0C352,0,320,0,288,0C256,0,224,0,192,0C160,0,128,0,96,0C64,0,32,0,16,0L0,0Z"></path></svg>