<?xml version="1.0" standalone="no"?><svg xmlns="http://www.w3.org/2000/svg" viewBox="0 0 1440 320"><path fill="#ffd000" fill-opacity="2" d="M0,192L40,176C80,160,160,128,240,117.3C320,107,400,117,480,106.7C560,96,640,64,720,64C800,64,880,96,960,117.3C1040,139,1120,149,1200,133.3C1280,117,1360,75,1400,53.3L1440,32L1440,320L1400,320C1360,320,1280,320,1200,320C1120,320,1040,320,960,320C880,320,800,320,720,320C640,320,560,320,480,320C400,320,320,320,240,320C160,320,80,320,40,320L0,320Z"></path></svg>